<?xml version="1.0" standalone="no"?>
<!DOCTYPE svg PUBLIC "-//W3C//DTD SVG 20010904//EN"
 "http://www.w3.org/TR/2001/REC-SVG-20010904/DTD/svg10.dtd">
<svg version="1.0" xmlns="http://www.w3.org/2000/svg"
 width="16.000000pt" height="16.000000pt" viewBox="0 0 16.000000 16.000000"
 preserveAspectRatio="xMidYMid meet">
<metadata>
Created by potrace 1.11, written by Peter Selinger 2001-2013
</metadata>
<g transform="translate(0.000000,16.000000) scale(0.003125,-0.003125)"
fill="#000000" stroke="none">
<path d="M2315 5109 c-600 -62 -1143 -319 -1564 -740 -404 -404 -649 -903
-733 -1494 -17 -118 -17 -512 0 -630 71 -497 252 -923 549 -1290 674 -832
1780 -1159 2793 -825 386 127 722 334 1009 621 404 404 649 903 733 1494 17
118 17 512 0 630 -84 591 -329 1090 -733 1494 -394 394 -882 639 -1449 726
-126 19 -477 28 -605 14z m2045 -2119 l0 -940 -1792 2 -1793 3 -3 938 -2 937
1795 0 1795 0 0 -940z m128 -1357 c-3 -238 -4 -249 -25 -279 -13 -17 -40 -40
-60 -50 -36 -18 -76 -19 -686 -22 -608 -2 -648 -4 -643 -20 3 -9 21 -114 41
-232 19 -118 38 -225 40 -237 5 -21 11 -23 75 -23 l70 0 0 -30 0 -30 -735 0
-735 0 0 30 0 30 78 0 77 0 38 227 c21 126 41 240 44 256 l5 27 -638 0 c-722
1 -709 0 -768 73 l-31 39 -3 244 -4 244 1932 0 1931 0 -3 -247z"/>
<path d="M2507 1650 c-79 -63 2 -192 92 -145 36 18 51 43 51 85 0 68 -86 104
-143 60z"/>
</g>
</svg>
